<svg xmlns="http://www.w3.org/2000/svg" xmlns:xlink="http://www.w3.org/1999/xlink" version="1.1" style="" xml:space="preserve" width="983.2857173997527" height="812.2857146749693"><rect id="backgroundrect" width="100%" height="100%" x="0" y="0" fill="none" stroke="none" class="selected" style=""/>
<style type="text/css">
	.st0{fill:none;stroke:#000;stroke-width:9.3662;stroke-miterlimit:10;}
	.st1{fill:#000;}
</style>



 
<g class="currentLayer" style=""><title>Layer 1</title><path class="st0" d="M948.5142944335937,638.9428680419921 c-6,82.8 -62.1,132 -144.4,123.4 c-39.1,-4.1 -78.3,-12.9 -115.7,-24.9 c-120,-38.5 -238.8,-38.9 -358.8,0 c-38.8,12.6 -79.6,21.1 -120.1,25.4 c-63.3,6.6 -106,-21.9 -129.2,-77.1 C-0.08570556640626137,494.44286804199214 155.71429443359375,111.24286804199218 406.8142944335938,68.9428680419922 c235.7,-39.7 385.2,46.7 476.9,245.6 C946.2142944335938,441.2428680419922 950.4142944335938,612.6428680419922 948.5142944335937,638.9428680419921 z" id="svg_1"/><ellipse transform="matrix(-0.9323,-0.3618,0.3618,-0.9323,1100.8348,1275.1495) " class="st1" cx="1007.230413301919" cy="535.3310672625438" rx="64.4000015258789" ry="116.4000015258789" id="svg_2"/><ellipse transform="matrix(0.9323,-0.3618,0.3618,0.9323,-127.9057,385.9355) " class="st1" cx="718.0616344980742" cy="306.27056337702805" rx="64.4000015258789" ry="116.4000015258789" id="svg_3"/></g></svg>